REM DIRINDEX 1\2\5,1\2\6,1\2\7,1\2\8,1\3\9,1\3\10,1\3\11,1\4\12,1\4\13,1\4\14,1\4\15,1\4\16
REM DIRNAME folder01,folder02,folder03,folder04,folder05,folder06,folder07,folder08,folder09,folder10,folder11,folder12,folder13,folder14,folder15,folder16
TITLE ""
FILE "1200_sec03_1161_1170.mp3" MP3
  TRACK 01 AUDIO
    TITLE "0:"
    INDEX 01 00:00:00
  TRACK 02 AUDIO
    TITLE "12:cjc034_08337"
    INDEX 01 00:00:17
  TRACK 03 AUDIO
    TITLE "0:"
    INDEX 01 00:03:35
  TRACK 04 AUDIO
    TITLE "13:cjc034_08338"
    INDEX 01 00:03:68
  TRACK 05 AUDIO
    TITLE "0:"
    INDEX 01 00:05:44
  TRACK 06 AUDIO
    TITLE "14:cjc034_08339"
    INDEX 01 00:06:00
  TRACK 07 AUDIO
    TITLE "0:"
    INDEX 01 00:09:20
  TRACK 08 AUDIO
    TITLE "15:cjc034_08340"
    INDEX 01 00:09:51
  TRACK 09 AUDIO
    TITLE "0:"
    INDEX 01 00:13:04
  TRACK 10 AUDIO
    TITLE "12:cjc034_08341"
    INDEX 01 00:14:39
  TRACK 11 AUDIO
    TITLE "0:"
    INDEX 01 00:15:58
  TRACK 12 AUDIO
    TITLE "13:cjc034_08342"
    INDEX 01 00:16:16
  TRACK 13 AUDIO
    TITLE "0:"
    INDEX 01 00:19:38
  TRACK 14 AUDIO
    TITLE "14:cjc034_08343"
    INDEX 01 00:19:71
  TRACK 15 AUDIO
    TITLE "0:"
    INDEX 01 00:21:17
  TRACK 16 AUDIO
    TITLE "15:cjc034_08344"
    INDEX 01 00:21:49
  TRACK 17 AUDIO
    TITLE "0:"
    INDEX 01 00:24:71
  TRACK 18 AUDIO
    TITLE "12:cjc034_08345"
    INDEX 01 00:26:28
  TRACK 19 AUDIO
    TITLE "0:"
    INDEX 01 00:28:13
  TRACK 20 AUDIO
    TITLE "13:cjc034_08346"
    INDEX 01 00:28:45
  TRACK 21 AUDIO
    TITLE "0:"
    INDEX 01 00:31:08
  TRACK 22 AUDIO
    TITLE "14:cjc034_08347"
    INDEX 01 00:31:41
  TRACK 23 AUDIO
    TITLE "0:"
    INDEX 01 00:33:24
  TRACK 24 AUDIO
    TITLE "15:cjc034_08348"
    INDEX 01 00:33:58
  TRACK 25 AUDIO
    TITLE "0:"
    INDEX 01 00:37:50
  TRACK 26 AUDIO
    TITLE "12:cjc034_08349"
    INDEX 01 00:39:05
  TRACK 27 AUDIO
    TITLE "0:"
    INDEX 01 00:40:26
  TRACK 28 AUDIO
    TITLE "13:cjc034_08350"
    INDEX 01 00:40:60
  TRACK 29 AUDIO
    TITLE "0:"
    INDEX 01 00:42:27
  TRACK 30 AUDIO
    TITLE "14:cjc034_08351"
    INDEX 01 00:42:57
  TRACK 31 AUDIO
    TITLE "0:"
    INDEX 01 00:44:01
  TRACK 32 AUDIO
    TITLE "15:cjc034_08352"
    INDEX 01 00:44:36
  TRACK 33 AUDIO
    TITLE "0:"
    INDEX 01 00:47:50
  TRACK 34 AUDIO
    TITLE "12:cjc034_08353"
    INDEX 01 00:49:06
  TRACK 35 AUDIO
    TITLE "0:"
    INDEX 01 00:50:17
  TRACK 36 AUDIO
    TITLE "13:cjc034_08354"
    INDEX 01 00:50:52
  TRACK 37 AUDIO
    TITLE "0:"
    INDEX 01 00:56:71
  TRACK 38 AUDIO
    TITLE "14:cjc034_08355"
    INDEX 01 00:57:27
  TRACK 39 AUDIO
    TITLE "0:"
    INDEX 01 00:58:40
  TRACK 40 AUDIO
    TITLE "15:cjc034_08356"
    INDEX 01 00:59:00
  TRACK 41 AUDIO
    TITLE "0:"
    INDEX 01 01:02:05
  TRACK 42 AUDIO
    TITLE "12:cjc034_08357"
    INDEX 01 01:03:35
  TRACK 43 AUDIO
    TITLE "0:"
    INDEX 01 01:05:07
  TRACK 44 AUDIO
    TITLE "13:cjc034_08358"
    INDEX 01 01:05:42
  TRACK 45 AUDIO
    TITLE "0:"
    INDEX 01 01:08:17
  TRACK 46 AUDIO
    TITLE "14:cjc034_08359"
    INDEX 01 01:08:52
  TRACK 47 AUDIO
    TITLE "0:"
    INDEX 01 01:10:26
  TRACK 48 AUDIO
    TITLE "15:cjc034_08360"
    INDEX 01 01:10:57
  TRACK 49 AUDIO
    TITLE "0:"
    INDEX 01 01:14:59
  TRACK 50 AUDIO
    TITLE "12:cjc034_08361"
    INDEX 01 01:16:18
  TRACK 51 AUDIO
    TITLE "0:"
    INDEX 01 01:17:32
  TRACK 52 AUDIO
    TITLE "13:cjc034_08362"
    INDEX 01 01:17:65
  TRACK 53 AUDIO
    TITLE "0:"
    INDEX 01 01:19:32
  TRACK 54 AUDIO
    TITLE "14:cjc034_08363"
    INDEX 01 01:19:64
  TRACK 55 AUDIO
    TITLE "0:"
    INDEX 01 01:21:04
  TRACK 56 AUDIO
    TITLE "15:cjc034_08364"
    INDEX 01 01:21:39
  TRACK 57 AUDIO
    TITLE "0:"
    INDEX 01 01:25:29
  TRACK 58 AUDIO
    TITLE "12:cjc034_08365"
    INDEX 01 01:26:64
  TRACK 59 AUDIO
    TITLE "0:"
    INDEX 01 01:27:71
  TRACK 60 AUDIO
    TITLE "13:cjc034_08366"
    INDEX 01 01:28:31
  TRACK 61 AUDIO
    TITLE "0:"
    INDEX 01 01:29:70
  TRACK 62 AUDIO
    TITLE "14:cjc034_08367"
    INDEX 01 01:30:32
  TRACK 63 AUDIO
    TITLE "0:"
    INDEX 01 01:31:39
  TRACK 64 AUDIO
    TITLE "15:cjc034_08368"
    INDEX 01 01:31:73
  TRACK 65 AUDIO
    TITLE "0:"
    INDEX 01 01:36:62
  TRACK 66 AUDIO
    TITLE "12:cjc034_08369"
    INDEX 01 01:38:18
  TRACK 67 AUDIO
    TITLE "0:"
    INDEX 01 01:39:55
  TRACK 68 AUDIO
    TITLE "13:cjc034_08370"
    INDEX 01 01:40:13
  TRACK 69 AUDIO
    TITLE "0:"
    INDEX 01 01:42:73
  TRACK 70 AUDIO
    TITLE "14:cjc034_08371"
    INDEX 01 01:43:31
  TRACK 71 AUDIO
    TITLE "0:"
    INDEX 01 01:44:68
  TRACK 72 AUDIO
    TITLE "15:cjc034_08372"
    INDEX 01 01:45:26
  TRACK 73 AUDIO
    TITLE "0:"
    INDEX 01 01:48:61
  TRACK 74 AUDIO
    TITLE "12:cjc034_08373"
    INDEX 01 01:50:19
  TRACK 75 AUDIO
    TITLE "0:"
    INDEX 01 01:51:50
  TRACK 76 AUDIO
    TITLE "13:cjc034_08374"
    INDEX 01 01:52:08
  TRACK 77 AUDIO
    TITLE "0:"
    INDEX 01 01:53:47
  TRACK 78 AUDIO
    TITLE "14:cjc034_08375"
    INDEX 01 01:54:05
  TRACK 79 AUDIO
    TITLE "0:"
    INDEX 01 01:55:34
  TRACK 80 AUDIO
    TITLE "15:cjc034_08376"
    INDEX 01 01:55:71
  TRACK 81 AUDIO
    TITLE "0:"
    INDEX 01 01:59:55
